<svg width="32" height="32" viewBox="0 0 32 32" fill="none" xmlns="http://www.w3.org/2000/svg">
<g clip-path="url(#clip0_0_687)">
<path d="M24.7745 2.85317L16.4212 0.0678328C16.1477 -0.023262 15.852 -0.023262 15.5785 0.0678328L7.22517 2.85317C5.89705 3.29434 4.74173 4.14284 3.92336 5.27811C3.105 6.41338 2.66522 7.77768 2.66651 9.17717V15.9998C2.66651 26.0838 14.9332 31.6532 15.4585 31.8852C15.6289 31.9609 15.8134 32 15.9998 32C16.1863 32 16.3707 31.9609 16.5412 31.8852C17.0665 31.6532 29.3332 26.0838 29.3332 15.9998V9.17717C29.3345 7.77768 28.8947 6.41338 28.0763 5.27811C27.258 4.14284 26.1026 3.29434 24.7745 2.85317ZM22.2905 12.9558L16.5945 18.6518C16.3614 18.8865 16.084 19.0725 15.7785 19.1991C15.4729 19.3256 15.1452 19.3903 14.8145 19.3892H14.7705C14.433 19.384 14.1001 19.3104 13.7919 19.1729C13.4836 19.0354 13.2065 18.8368 12.9772 18.5892L9.90251 15.3892C9.76935 15.2656 9.66284 15.1162 9.58951 14.95C9.51618 14.7838 9.47758 14.6044 9.47608 14.4228C9.47458 14.2411 9.51021 14.0611 9.58078 13.8937C9.65135 13.7263 9.75537 13.5752 9.88647 13.4494C10.0176 13.3237 10.173 13.2261 10.3431 13.1626C10.5133 13.0991 10.6947 13.071 10.8761 13.0801C11.0575 13.0892 11.2352 13.1352 11.3981 13.2154C11.5611 13.2956 11.706 13.4083 11.8238 13.5465L14.8158 16.6665L20.3998 11.0665C20.6513 10.8236 20.9881 10.6892 21.3377 10.6923C21.6873 10.6953 22.0217 10.8355 22.2689 11.0827C22.5161 11.33 22.6564 11.6644 22.6594 12.014C22.6624 12.3636 22.5281 12.7004 22.2852 12.9518L22.2905 12.9558Z" fill="#7D2AEB"/>
</g>
<defs>
<clipPath id="clip0_0_687">
<rect width="32" height="32" fill="white"/>
</clipPath>
</defs>
</svg>
