<svg width="32" height="32" viewBox="0 0 32 32" fill="none" xmlns="http://www.w3.org/2000/svg">
<g clip-path="url(#clip0_0_680)">
<path d="M31.9999 11.3066V26.6666C31.9999 27.0202 31.8594 27.3593 31.6094 27.6094C31.3593 27.8594 31.0202 27.9999 30.6666 27.9999C30.3129 27.9999 29.9738 27.8594 29.7237 27.6094C29.4737 27.3593 29.3332 27.0202 29.3332 26.6666V15.6692L19.4666 20.3839C18.4262 20.998 17.2386 21.3178 16.0306 21.3092C14.7637 21.3112 13.5198 20.9708 12.4305 20.3239L2.59055 15.6399C1.81706 15.224 1.16896 14.6086 0.71351 13.8577C0.258058 13.1068 0.0118444 12.2477 0.000416754 11.3696C-0.0110109 10.4914 0.212764 9.62618 0.648521 8.86368C1.08428 8.10118 1.71614 7.46917 2.47855 7.03325C2.51455 7.01192 2.55322 6.99192 2.59055 6.97325L12.5332 2.22925C13.6066 1.6128 14.8249 1.29342 16.0627 1.30396C17.3005 1.31451 18.5131 1.6546 19.5759 2.28925L29.4092 6.97325C30.1851 7.40256 30.8336 8.02964 31.2886 8.79075C31.7436 9.55187 31.989 10.4199 31.9999 11.3066ZM16.0292 23.9732C14.3233 23.977 12.6467 23.5299 11.1692 22.6772L5.33322 19.8919V23.4919C5.33401 24.9153 5.7897 26.3011 6.63379 27.4472C7.47787 28.5933 8.66616 29.4396 10.0252 29.8626C11.967 30.4201 13.9798 30.691 15.9999 30.6666C18.0202 30.6892 20.033 30.4166 21.9746 29.8572C23.3336 29.4342 24.5219 28.5879 25.366 27.4419C26.2101 26.2958 26.6658 24.9099 26.6665 23.4866V19.8986L20.7212 22.7386C19.2941 23.5585 17.6751 23.9854 16.0292 23.9759V23.9732Z" fill="#7D2AEB"/>
</g>
<defs>
<clipPath id="clip0_0_680">
<rect width="32" height="32" fill="white"/>
</clipPath>
</defs>
</svg>
