<svg width="32" height="32" viewBox="0 0 32 32" fill="none" xmlns="http://www.w3.org/2000/svg">
<path d="M27.1277 16.7926H26.2717C25.8767 13.7378 24.2306 11.1479 21.7943 9.48769L23.7697 3.97583C24.3622 3.77661 24.889 3.37816 25.0865 2.71408C25.4816 1.65155 24.9548 0.522614 23.9013 0.124166C22.8478 -0.274282 21.7943 0.32339 21.3993 1.38592C21.2018 1.98359 21.2676 2.64767 21.5968 3.17893L19.6874 8.42516C18.5022 7.96031 17.2511 7.69468 16.0001 7.69468C14.6832 7.69468 13.4322 7.96031 12.3129 8.42516L10.4034 3.17893C10.7326 2.64767 10.8643 1.98359 10.6009 1.38592C10.2059 0.32339 9.08653 -0.207874 8.03303 0.190574C6.97953 0.589022 6.45278 1.71796 6.84785 2.78049C7.04538 3.37816 7.57213 3.84301 8.16472 4.04224L10.14 9.5541C7.76966 11.2143 6.05772 13.8042 5.66266 16.859H4.87254C4.14826 16.859 3.55566 17.4567 3.55566 18.1871V22.3044C3.55566 23.0349 4.14826 23.6326 4.87254 23.6326H5.66266V29.8085C5.66266 31.0039 6.65031 32 7.8355 32H24.1647C25.3499 32 26.3376 31.0039 26.3376 29.8085V23.6326H27.1277C27.852 23.6326 28.4446 23.0349 28.4446 22.3044V18.1871C28.4446 17.3902 27.852 16.7926 27.1277 16.7926ZM11.3252 14.5347H20.675C21.926 14.5347 22.9137 15.5308 22.9137 16.7926C22.9137 18.0543 21.926 19.0504 20.675 19.0504H11.3252C10.0742 19.0504 9.08653 18.0543 9.08653 16.7926C9.08653 15.5308 10.0742 14.5347 11.3252 14.5347ZM23.0454 27.7499C23.0454 28.1483 22.7162 28.4804 22.3211 28.4804H9.67912C9.28406 28.4804 8.95484 28.1483 8.95484 27.7499V25.3592C8.95484 24.9608 9.28406 24.6287 9.67912 24.6287C10.0742 24.6287 10.4034 24.9608 10.4034 25.3592V27.0194H21.5968V25.3592C21.5968 24.9608 21.926 24.6287 22.3211 24.6287C22.7162 24.6287 23.0454 24.9608 23.0454 25.3592V27.7499Z" fill="#7D2AEB"/>
</svg>
