<svg width="32" height="32" viewBox="0 0 32 32" fill="none" xmlns="http://www.w3.org/2000/svg">
<path d="M5.33333 6.66667C5.33333 5.93067 5.93067 5.33333 6.66667 5.33333H8.54C9.304 2.91067 10.8187 0 12.6667 0C13.9707 0 15.1427 0.770667 16 1.504C16.8573 0.770667 18.0293 0 19.3333 0C21.1813 0 22.696 2.91067 23.46 5.33333H25.3333C26.0693 5.33333 26.6667 5.93067 26.6667 6.66667C26.6667 7.40267 26.0693 8 25.3333 8H6.66667C5.93067 8 5.33333 7.40267 5.33333 6.66667ZM17.3333 26.6667H14.6667L6.62667 16.8693C6.056 16.1227 6.24 15.0453 7.03867 14.5507C7.50133 14.264 8.43733 13.7 9.12667 13.3947C8.63733 12.5667 8.28667 11.6493 8.12133 10.6653H23.8813C23.716 11.6493 23.364 12.5667 22.876 13.3947C23.564 13.6987 24.512 14.3 24.976 14.5867C25.7747 15.0813 25.9587 16.1587 25.388 16.9053L17.336 26.6653L17.3333 26.6667ZM17.772 20C18.3307 20 18.8293 19.652 19.0227 19.128L20.1027 16.196C18.9027 16.9173 17.5013 17.3347 15.9987 17.3347C14.496 17.3347 13.0947 16.9173 11.8947 16.196L12.9747 19.128C13.168 19.652 13.6667 20 14.2253 20H17.7693H17.772ZM4 29.3333V30.6667C4 31.4027 4.59733 32 5.33333 32H14.6667V30.8707L6.95867 21.4787C5.092 23.6293 4 26.3987 4 29.3333ZM25.056 21.496L17.3333 30.856V32H26.6667C27.4027 32 28 31.4027 28 30.6667V29.3333C28 26.4067 26.9133 23.644 25.056 21.496Z" fill="#7D2AEB"/>
</svg>
