<svg width="32" height="32" viewBox="0 0 32 32" fill="none" xmlns="http://www.w3.org/2000/svg">
<g clip-path="url(#clip0_0_670)">
<path d="M32 9.33333V10.6667H0V9.33333C0 5.652 2.98533 2.66667 6.66667 2.66667H8V1.33333C8 0.597333 8.59733 0 9.33333 0C10.0693 0 10.6667 0.597333 10.6667 1.33333V2.66667H21.3333V1.33333C21.3333 0.597333 21.9307 0 22.6667 0C23.4027 0 24 0.597333 24 1.33333V2.66667H25.3333C29.0147 2.66667 32 5.652 32 9.33333ZM32 22.6667C32 27.8133 27.812 32 22.6667 32C17.5213 32 13.3333 27.8133 13.3333 22.6667C13.3333 17.52 17.5213 13.3333 22.6667 13.3333C27.812 13.3333 32 17.52 32 22.6667ZM25.3333 23.448L24 22.1147V20C24 19.264 23.4027 18.6667 22.6667 18.6667C21.9307 18.6667 21.3333 19.264 21.3333 20V22.6667C21.3333 23.02 21.4733 23.36 21.724 23.6093L23.448 25.3333C23.968 25.8533 24.8133 25.8533 25.3333 25.3333C25.8533 24.8133 25.8533 23.968 25.3333 23.448ZM10.6667 22.6667C10.6667 18.8947 12.4107 15.5333 15.132 13.3333H0V25.3333C0 29.0147 2.98533 32 6.66667 32H15.132C12.4107 29.8 10.6667 26.4387 10.6667 22.6667Z" fill="#7D2AEB"/>
</g>
<defs>
<clipPath id="clip0_0_670">
<rect width="32" height="32" fill="white"/>
</clipPath>
</defs>
</svg>
