<svg width="32" height="32" viewBox="0 0 32 32" fill="none" xmlns="http://www.w3.org/2000/svg">
<path d="M4.85057 11.9999C4.02657 11.9999 3.38657 11.2559 3.53191 10.4452C4.01057 7.77721 5.33991 5.29721 7.33857 3.42388C9.91857 1.00388 13.2879 -0.202786 16.8399 0.0278803C23.5346 0.45988 28.7639 6.28788 28.6652 13.2505C28.6119 17.0079 25.4799 20.0012 21.7212 20.0012H17.8119C17.3319 20.4625 16.6839 20.7492 15.9666 20.7492C14.4932 20.7492 13.2999 19.5559 13.2999 18.0825C13.2999 16.6092 14.4932 15.4159 15.9666 15.4159C17.1772 15.4159 18.1879 16.2279 18.5132 17.3345H21.7212C24.0359 17.3345 25.9732 15.4905 25.9986 13.1772C26.0599 7.64921 21.9386 3.03188 16.6679 2.69055C13.8692 2.51721 11.1999 3.46121 9.16124 5.37188C7.54924 6.88255 6.51057 8.81721 6.14657 10.9425C6.03991 11.5639 5.47991 12.0025 4.85057 12.0025V11.9999ZM15.9999 22.6665C11.0732 22.6665 6.81057 25.7225 5.39324 30.2692C5.26657 30.6745 5.33991 31.1159 5.59191 31.4572C5.84391 31.7985 6.24257 31.9999 6.66657 31.9999H25.3332C25.7572 31.9999 26.1559 31.7985 26.4079 31.4572C26.6599 31.1159 26.7332 30.6745 26.6066 30.2692C25.1892 25.7225 20.9266 22.6665 15.9999 22.6665ZM19.9119 14.6665H23.0506C23.2306 14.0305 23.3332 13.3612 23.3332 12.6665C23.3332 8.61588 20.0506 5.33321 15.9999 5.33321C11.9492 5.33321 8.66657 8.61588 8.66657 12.6665C8.66657 14.6545 9.46124 16.4545 10.7452 17.7759C10.9066 15.0212 13.1706 12.8305 15.9666 12.8305C17.5546 12.8305 18.9546 13.5519 19.9132 14.6665H19.9119Z" fill="#7D2AEB"/>
</svg>
