<svg width="210" height="63" viewBox="0 0 210 63" fill="none" xmlns="http://www.w3.org/2000/svg">
<path d="M3.84604 50.741C4.48784 50.0426 5.36088 49.6934 6.46515 49.6934C7.56942 49.6934 8.42829 50.0285 9.04177 50.6986C9.65526 51.3687 9.962 52.3078 9.962 53.5159C9.962 54.7523 9.65526 55.715 9.04177 56.404C8.42829 57.093 7.5647 57.4375 6.45099 57.4375C5.33728 57.4375 4.46425 57.0977 3.83189 56.4181C3.19953 55.7386 2.88335 54.7948 2.88335 53.5867C2.88335 52.388 3.20425 51.4395 3.84604 50.741ZM8.10739 51.4772C7.70155 50.9581 7.1447 50.6986 6.43683 50.6986C5.72897 50.6986 5.16739 50.9581 4.75211 51.4772C4.33683 51.9963 4.12919 52.69 4.12919 53.5584C4.12919 54.455 4.33211 55.1581 4.73795 55.6678C5.15324 56.168 5.72897 56.4181 6.46515 56.4181C7.17301 56.4181 7.72515 56.1633 8.12155 55.6536C8.52739 55.144 8.73031 54.4408 8.73031 53.5442C8.73031 52.6759 8.52267 51.9869 8.10739 51.4772ZM12.924 48.8864C13.2449 48.3862 13.6318 48.0181 14.0849 47.7822C14.5379 47.5368 15.1136 47.3905 15.8121 47.3433C16.5954 47.2867 17.0721 47.2112 17.2419 47.1168C17.3552 47.0602 17.4402 46.9846 17.4968 46.8903H18.7002C18.6718 47.0413 18.6294 47.1781 18.5727 47.3008C18.5255 47.4235 18.4689 47.5321 18.4028 47.6264C18.3462 47.7114 18.2613 47.7916 18.148 47.8671C18.0442 47.9426 17.9545 48.0087 17.879 48.0653C17.8035 48.1125 17.6903 48.1597 17.5393 48.2069C17.3977 48.2446 17.2844 48.2777 17.1995 48.306C17.1145 48.3249 16.9824 48.3437 16.8031 48.3626C16.6332 48.3815 16.5105 48.3957 16.435 48.4051C16.3595 48.4145 16.2226 48.424 16.0244 48.4334C15.8262 48.4428 15.6988 48.4523 15.6422 48.4617C14.8682 48.5184 14.2642 48.8204 13.83 49.3678C13.3959 49.9058 13.1222 50.6278 13.0089 51.5339H13.0514C13.259 51.0336 13.5894 50.6325 14.0424 50.3305C14.4954 50.0285 15.0193 49.8775 15.6139 49.8775C16.6521 49.8775 17.4637 50.2078 18.0489 50.8685C18.6435 51.5197 18.9408 52.4352 18.9408 53.615C18.9408 54.8325 18.6388 55.7763 18.0348 56.4464C17.4402 57.1166 16.6002 57.4516 15.5148 57.4516C14.6276 57.4516 13.8772 57.1921 13.2637 56.673C12.6503 56.1444 12.2727 55.3894 12.1312 54.4078C12.0745 54.0114 12.0462 53.5678 12.0462 53.077C12.0462 51.1799 12.3388 49.7831 12.924 48.8864ZM13.2779 53.6575C13.2779 54.488 13.4761 55.1581 13.8725 55.6678C14.2784 56.1775 14.8305 56.4323 15.5289 56.4323C16.2085 56.4323 16.7417 56.1869 17.1287 55.6961C17.5157 55.2053 17.7091 54.521 17.7091 53.6433C17.7091 52.7844 17.5109 52.1096 17.1145 51.6188C16.7181 51.128 16.1802 50.8826 15.5006 50.8826C14.8211 50.8826 14.2784 51.1327 13.8725 51.633C13.4761 52.1237 13.2779 52.7986 13.2779 53.6575ZM22.3558 49.9058V50.9393C22.8844 50.0993 23.7055 49.6793 24.8192 49.6793C25.8385 49.6793 26.6455 50.0237 27.2401 50.7127C27.8441 51.4017 28.1462 52.3361 28.1462 53.5159C28.1462 54.6957 27.8489 55.6395 27.2543 56.3473C26.6691 57.0458 25.8763 57.395 24.8758 57.395C23.8282 57.395 23.0118 56.9939 22.4266 56.1916V60.0282H21.2232V49.9058H22.3558ZM24.6352 50.6844C23.9367 50.6844 23.3846 50.9393 22.9788 51.4489C22.5823 51.9491 22.3841 52.6428 22.3841 53.53C22.3841 54.4172 22.5871 55.1157 22.9929 55.6253C23.4082 56.1255 23.9698 56.3757 24.6776 56.3757C25.3666 56.3757 25.9093 56.1208 26.3057 55.6112C26.7021 55.1015 26.9003 54.4078 26.9003 53.53C26.9003 52.6428 26.6974 51.9491 26.2916 51.4489C25.8952 50.9393 25.343 50.6844 24.6352 50.6844ZM36.9346 56.2482V57.1826C36.6893 57.277 36.4155 57.3242 36.1135 57.3242C35.4245 57.3242 35.0706 56.9655 35.0517 56.2482C34.3627 57.0222 33.4803 57.4091 32.4043 57.4091C31.687 57.4091 31.116 57.2251 30.6913 56.857C30.276 56.4889 30.0684 55.984 30.0684 55.3422C30.0684 54.0397 30.932 53.2799 32.6591 53.0628C32.7724 53.044 32.9376 53.0251 33.1546 53.0062C33.9758 52.9118 34.4807 52.8033 34.6695 52.6806C34.8866 52.5296 34.9951 52.27 34.9951 51.9019C34.9951 51.0997 34.443 50.6986 33.3387 50.6986C32.7724 50.6986 32.343 50.8166 32.0504 51.0525C31.7578 51.279 31.5832 51.6566 31.5266 52.1851H30.3515C30.3704 51.4017 30.6488 50.793 31.1868 50.3588C31.7248 49.9246 32.4657 49.7076 33.4095 49.7076C34.4382 49.7076 35.2027 49.9435 35.703 50.4154C35.8634 50.5664 35.9814 50.7646 36.0569 51.01C36.1324 51.2554 36.1749 51.4584 36.1843 51.6188C36.1937 51.7698 36.1985 52.001 36.1985 52.3125C36.1985 52.6712 36.189 53.2139 36.1702 53.9406C36.1513 54.6673 36.1418 55.21 36.1418 55.5687C36.1418 55.833 36.1749 56.0217 36.2409 56.135C36.3164 56.2388 36.4486 56.2907 36.6373 56.2907C36.7129 56.2907 36.812 56.2766 36.9346 56.2482ZM34.9951 53.4168C34.9102 53.4828 34.8205 53.5395 34.7261 53.5867C34.6317 53.6339 34.509 53.6716 34.358 53.6999C34.2164 53.7282 34.1173 53.7518 34.0607 53.7707C34.0135 53.7802 33.8908 53.799 33.6926 53.8273C33.4944 53.8462 33.3906 53.8557 33.3812 53.8557C33.0886 53.8934 32.8951 53.9217 32.8007 53.9406C32.7158 53.95 32.5459 53.9878 32.2911 54.0539C32.0457 54.1199 31.8711 54.1954 31.7672 54.2804C31.6634 54.3653 31.5596 54.4927 31.4558 54.6626C31.3614 54.8231 31.3142 55.0166 31.3142 55.2431C31.3142 55.6206 31.4416 55.9179 31.6964 56.135C31.9607 56.3521 32.3194 56.4606 32.7724 56.4606C33.3481 56.4606 33.8625 56.2907 34.3155 55.9509C34.7686 55.6112 34.9951 55.21 34.9951 54.7476V53.4168ZM38.5077 52.0152C38.5643 51.1846 38.8805 50.59 39.4562 50.2314C40.0319 49.8727 40.7445 49.6934 41.5939 49.6934C42.3962 49.6934 43.0521 49.8586 43.5618 50.1889C44.0809 50.5193 44.3405 51.01 44.3405 51.6613C44.3405 52.0577 44.2225 52.3975 43.9865 52.6806C43.76 52.9637 43.4863 53.1384 43.1654 53.2044V53.2327C43.5524 53.3082 43.8827 53.5017 44.1564 53.8132C44.4396 54.1152 44.5811 54.5258 44.5811 55.0449C44.5811 55.7999 44.2838 56.3898 43.6892 56.8145C43.0946 57.2298 42.382 57.4375 41.5515 57.4375C40.5982 57.4375 39.8384 57.2204 39.2721 56.7862C38.7153 56.3426 38.418 55.7244 38.3802 54.9316H39.5978C39.6355 55.4413 39.829 55.8235 40.1782 56.0784C40.5274 56.3332 40.9805 56.4606 41.5373 56.4606C42.0942 56.4606 42.533 56.3285 42.8539 56.0642C43.1748 55.7905 43.3353 55.4602 43.3353 55.0732C43.3353 54.2804 42.8162 53.884 41.778 53.884H40.7728V52.9071H41.5798C42.0423 52.9071 42.4151 52.8127 42.6982 52.624C42.9814 52.4258 43.1229 52.1237 43.1229 51.7179C43.1229 51.4348 42.9814 51.1894 42.6982 50.9817C42.4245 50.7741 42.0517 50.6703 41.5798 50.6703C41.0984 50.6703 40.6784 50.7788 40.3198 50.9959C39.9706 51.213 39.7724 51.5527 39.7252 52.0152H38.5077ZM47.4268 50.741C48.0686 50.0426 48.9416 49.6934 50.0459 49.6934C51.1501 49.6934 52.009 50.0285 52.6225 50.6986C53.236 51.3687 53.5427 52.3078 53.5427 53.5159C53.5427 54.7523 53.236 55.715 52.6225 56.404C52.009 57.093 51.1454 57.4375 50.0317 57.4375C48.918 57.4375 48.045 57.0977 47.4126 56.4181C46.7802 55.7386 46.4641 54.7948 46.4641 53.5867C46.4641 52.388 46.785 51.4395 47.4268 50.741ZM51.6881 51.4772C51.2823 50.9581 50.7254 50.6986 50.0175 50.6986C49.3097 50.6986 48.7481 50.9581 48.3328 51.4772C47.9175 51.9963 47.7099 52.69 47.7099 53.5584C47.7099 54.455 47.9128 55.1581 48.3187 55.6678C48.7339 56.168 49.3097 56.4181 50.0459 56.4181C50.7537 56.4181 51.3059 56.1633 51.7023 55.6536C52.1081 55.144 52.311 54.4408 52.311 53.5442C52.311 52.6759 52.1034 51.9869 51.6881 51.4772ZM55.7968 57.2109V49.9058H59.1804C59.6618 49.9058 60.0723 49.9482 60.4121 50.0332C60.7519 50.1087 61.0492 50.2833 61.304 50.557C61.5588 50.8307 61.6863 51.2035 61.6863 51.6754C61.6863 52.3927 61.3276 52.9166 60.6103 53.2469V53.261C61.0445 53.346 61.3842 53.5489 61.6296 53.8698C61.875 54.1813 61.9977 54.5777 61.9977 55.059C61.9977 55.6819 61.7901 56.1963 61.3748 56.6022C60.9595 57.008 60.4263 57.2109 59.775 57.2109H55.7968ZM59.053 52.8505C59.5532 52.8505 59.9072 52.7703 60.1148 52.6098C60.3319 52.4399 60.4404 52.1945 60.4404 51.8736C60.4404 51.5527 60.3366 51.3168 60.129 51.1658C59.9213 51.0148 59.5627 50.9393 59.053 50.9393H56.9719V52.8505H59.053ZM56.9719 53.8698V56.1775H59.5485C59.926 56.1775 60.2186 56.0642 60.4263 55.8377C60.6433 55.6112 60.7519 55.3186 60.7519 54.9599C60.7519 54.2332 60.28 53.8698 59.3361 53.8698H56.9719ZM70.7485 56.2482V57.1826C70.5031 57.277 70.2294 57.3242 69.9274 57.3242C69.2384 57.3242 68.8844 56.9655 68.8656 56.2482C68.1766 57.0222 67.2941 57.4091 66.2181 57.4091C65.5008 57.4091 64.9298 57.2251 64.5051 56.857C64.0898 56.4889 63.8822 55.984 63.8822 55.3422C63.8822 54.0397 64.7458 53.2799 66.473 53.0628C66.5862 53.044 66.7514 53.0251 66.9685 53.0062C67.7896 52.9118 68.2945 52.8033 68.4833 52.6806C68.7004 52.5296 68.8089 52.27 68.8089 51.9019C68.8089 51.0997 68.2568 50.6986 67.1525 50.6986C66.5862 50.6986 66.1568 50.8166 65.8642 51.0525C65.5716 51.279 65.397 51.6566 65.3404 52.1851H64.1653C64.1842 51.4017 64.4626 50.793 65.0006 50.3588C65.5386 49.9246 66.2795 49.7076 67.2233 49.7076C68.2521 49.7076 69.0166 49.9435 69.5168 50.4154C69.6772 50.5664 69.7952 50.7646 69.8707 51.01C69.9462 51.2554 69.9887 51.4584 69.9981 51.6188C70.0076 51.7698 70.0123 52.001 70.0123 52.3125C70.0123 52.6712 70.0029 53.2139 69.984 53.9406C69.9651 54.6673 69.9557 55.21 69.9557 55.5687C69.9557 55.833 69.9887 56.0217 70.0548 56.135C70.1303 56.2388 70.2624 56.2907 70.4512 56.2907C70.5267 56.2907 70.6258 56.2766 70.7485 56.2482ZM68.8089 53.4168C68.724 53.4828 68.6343 53.5395 68.5399 53.5867C68.4456 53.6339 68.3229 53.6716 68.1719 53.6999C68.0303 53.7282 67.9312 53.7518 67.8745 53.7707C67.8274 53.7802 67.7047 53.799 67.5065 53.8273C67.3083 53.8462 67.2044 53.8557 67.195 53.8557C66.9024 53.8934 66.7089 53.9217 66.6145 53.9406C66.5296 53.95 66.3597 53.9878 66.1049 54.0539C65.8595 54.1199 65.6849 54.1954 65.5811 54.2804C65.4772 54.3653 65.3734 54.4927 65.2696 54.6626C65.1752 54.8231 65.128 55.0166 65.128 55.2431C65.128 55.6206 65.2554 55.9179 65.5103 56.135C65.7745 56.3521 66.1332 56.4606 66.5862 56.4606C67.162 56.4606 67.6763 56.2907 68.1294 55.9509C68.5824 55.6112 68.8089 55.21 68.8089 54.7476V53.4168ZM78.3242 50.9676H75.7051V57.2109H74.5017V50.9676H71.8826V49.9058H78.3242V50.9676ZM86.1293 54.9033C85.7612 56.6022 84.6994 57.4516 82.9439 57.4516C81.8679 57.4516 81.0232 57.1166 80.4097 56.4464C79.8057 55.7763 79.5037 54.8467 79.5037 53.6575C79.5037 52.4777 79.8151 51.5244 80.438 50.7977C81.0704 50.0615 81.8915 49.6934 82.9014 49.6934C84.0246 49.6934 84.8551 50.0757 85.3931 50.8402C85.9405 51.5952 86.2142 52.5532 86.2142 53.7141V53.884H80.7212L80.707 53.9689C80.707 54.7428 80.91 55.3516 81.3158 55.7952C81.7216 56.2388 82.2785 56.4606 82.9864 56.4606C83.5149 56.4606 83.9302 56.3379 84.2322 56.0925C84.5437 55.8471 84.7843 55.4507 84.9542 54.9033H86.1293ZM84.9684 52.9071C84.9118 52.2087 84.6994 51.666 84.3313 51.279C83.9632 50.8826 83.4771 50.6844 82.8731 50.6844C82.2879 50.6844 81.8019 50.8826 81.4149 51.279C81.0279 51.6754 80.7967 52.2181 80.7212 52.9071H84.9684ZM94.1782 49.9058V57.2109H92.9748V50.9676H90.3698L90.2707 54.1954C90.2424 55.3091 90.0395 56.1161 89.662 56.6163C89.2844 57.1166 88.8125 57.3667 88.2462 57.3667C87.897 57.3667 87.6092 57.3148 87.3827 57.2109V56.2341C87.5053 56.3002 87.7177 56.3332 88.0197 56.3332C88.3029 56.3332 88.5435 56.1822 88.7418 55.8802C88.9494 55.5687 89.0627 55.0496 89.0815 54.3228L89.2089 49.9058H94.1782ZM102.3 53.3035C102.734 53.6999 102.951 54.2426 102.951 54.9316C102.951 55.6206 102.739 56.1727 102.314 56.588C101.899 57.0033 101.337 57.2109 100.629 57.2109H96.7642V49.9058H97.9676V52.6948H100.572C101.29 52.6948 101.866 52.8977 102.3 53.3035ZM100.19 53.7282H97.9676V56.1491H100.19C100.681 56.1491 101.054 56.0453 101.309 55.8377C101.573 55.6206 101.705 55.3186 101.705 54.9316C101.705 54.1294 101.2 53.7282 100.19 53.7282ZM106.201 57.2109H104.997V49.9058H106.201V52.808H109.853V49.9058H111.057V57.2109H109.853V53.8698H106.201V57.2109ZM120.679 49.9058H121.882V57.2109H120.679V49.9058ZM118.867 53.3035C119.301 53.6999 119.518 54.2426 119.518 54.9316C119.518 55.6206 119.306 56.1727 118.881 56.588C118.466 57.0033 117.904 57.2109 117.196 57.2109H113.671V49.9058H114.874V52.6948H117.14C117.857 52.6948 118.433 52.8977 118.867 53.3035ZM116.757 53.7282H114.874V56.1491H116.757C117.248 56.1491 117.621 56.0453 117.876 55.8377C118.14 55.6206 118.272 55.3186 118.272 54.9316C118.272 54.1294 117.767 53.7282 116.757 53.7282ZM129.699 47.1309C129.604 47.7255 129.373 48.2022 129.005 48.5608C128.646 48.91 128.17 49.0846 127.575 49.0846C126.999 49.0846 126.513 48.9053 126.117 48.5467C125.73 48.1786 125.499 47.7067 125.423 47.1309H126.145C126.362 47.8671 126.834 48.2352 127.561 48.2352C128.259 48.2352 128.731 47.8671 128.977 47.1309H129.699ZM126.074 57.2109H124.531V49.9058H125.735V55.866H125.763L129.047 49.9058H130.591V57.2109H129.387V51.2507H129.359L126.074 57.2109ZM143.842 59.5327V57.2109H138.037V49.9058H139.24V56.1491H142.836V49.9058H144.04V56.1491H144.988V59.5327H143.842ZM153.204 54.9033C152.836 56.6022 151.774 57.4516 150.019 57.4516C148.943 57.4516 148.098 57.1166 147.484 56.4464C146.88 55.7763 146.578 54.8467 146.578 53.6575C146.578 52.4777 146.89 51.5244 147.513 50.7977C148.145 50.0615 148.966 49.6934 149.976 49.6934C151.099 49.6934 151.93 50.0757 152.468 50.8402C153.015 51.5952 153.289 52.5532 153.289 53.7141V53.884H147.796L147.782 53.9689C147.782 54.7428 147.985 55.3516 148.39 55.7952C148.796 56.2388 149.353 56.4606 150.061 56.4606C150.59 56.4606 151.005 56.3379 151.307 56.0925C151.618 55.8471 151.859 55.4507 152.029 54.9033H153.204ZM152.043 52.9071C151.986 52.2087 151.774 51.666 151.406 51.279C151.038 50.8826 150.552 50.6844 149.948 50.6844C149.363 50.6844 148.877 50.8826 148.49 51.279C148.103 51.6754 147.871 52.2181 147.796 52.9071H152.043ZM156.617 57.2109H155.414V49.9058H156.617V52.808H160.27V49.9058H161.473V57.2109H160.27V53.8698H156.617V57.2109ZM169.722 50.9676H167.103V57.2109H165.9V50.9676H163.281V49.9058H169.722V50.9676ZM172.665 49.9058V50.9393C173.194 50.0993 174.015 49.6793 175.129 49.6793C176.148 49.6793 176.955 50.0237 177.55 50.7127C178.154 51.4017 178.456 52.3361 178.456 53.5159C178.456 54.6957 178.159 55.6395 177.564 56.3473C176.979 57.0458 176.186 57.395 175.185 57.395C174.138 57.395 173.321 56.9939 172.736 56.1916V60.0282H171.533V49.9058H172.665ZM174.945 50.6844C174.246 50.6844 173.694 50.9393 173.288 51.4489C172.892 51.9491 172.694 52.6428 172.694 53.53C172.694 54.4172 172.897 55.1157 173.303 55.6253C173.718 56.1255 174.279 56.3757 174.987 56.3757C175.676 56.3757 176.219 56.1208 176.615 55.6112C177.012 55.1015 177.21 54.4078 177.21 53.53C177.21 52.6428 177.007 51.9491 176.601 51.4489C176.205 50.9393 175.653 50.6844 174.945 50.6844ZM198.051 53.3318C198.051 53.9642 197.867 54.4597 197.499 54.8184C197.14 55.1676 196.64 55.3422 195.998 55.3422C195.347 55.3422 194.832 55.1628 194.455 54.8042C194.077 54.4361 193.889 53.9406 193.889 53.3177C193.889 52.6948 194.073 52.1945 194.441 51.817C194.818 51.4395 195.314 51.2507 195.927 51.2507C196.588 51.2507 197.107 51.4348 197.485 51.8028C197.862 52.1709 198.051 52.6806 198.051 53.3318ZM198.023 57.2109H194.058V56.319H198.023V57.2109ZM193.011 57.2109H191.538L187.051 49.3536H187.022V57.2109H185.748V47.3575H187.178L191.708 55.2997H191.737V47.3575H193.011V57.2109ZM197.017 53.2894C197.017 52.8741 196.923 52.5626 196.734 52.355C196.555 52.1379 196.309 52.0294 195.998 52.0294C195.658 52.0294 195.394 52.1379 195.205 52.355C195.016 52.5626 194.922 52.8788 194.922 53.3035C194.922 54.1435 195.276 54.5635 195.984 54.5635C196.673 54.5635 197.017 54.1388 197.017 53.2894ZM204.733 47.1876V57.2109H203.416V49.9482H200.896V49.0422C201.708 49.0422 202.35 48.91 202.822 48.6458C203.303 48.3815 203.624 47.8954 203.785 47.1876H204.733Z" fill="#7D2AEB"/>
<path d="M17.036 35.8355C14.3681 35.8355 11.9519 35.2567 9.78745 34.0989C7.64812 32.916 5.96183 31.2926 4.72857 29.2288C3.52048 27.165 2.91644 24.8369 2.91644 22.2445C2.91644 19.6522 3.53307 17.3241 4.76633 15.2603C5.99958 13.1964 7.68588 11.5856 9.8252 10.4279C11.9897 9.24497 14.4059 8.65351 17.0737 8.65351C19.2382 8.65351 21.214 9.03104 23.0009 9.7861C24.7879 10.5412 26.298 11.636 27.5313 13.0706L24.36 16.0531C22.4472 13.9892 20.094 12.9573 17.3003 12.9573C15.4881 12.9573 13.8648 13.36 12.4301 14.1654C10.9955 14.9456 9.87554 16.0405 9.07015 17.4499C8.26475 18.8594 7.86206 20.4576 7.86206 22.2445C7.86206 24.0315 8.26475 25.6297 9.07015 27.0391C9.87554 28.4486 10.9955 29.556 12.4301 30.3614C13.8648 31.1416 15.4881 31.5317 17.3003 31.5317C20.094 31.5317 22.4472 30.4872 24.36 28.3982L27.5313 31.4185C26.298 32.8531 24.7753 33.9479 22.9632 34.703C21.1762 35.458 19.2005 35.8355 17.036 35.8355ZM57.005 15.0715C59.547 15.0715 61.5605 15.814 63.0455 17.2989C64.5304 18.7587 65.2729 20.9609 65.2729 23.9056V35.458H60.5538V24.5097C60.5538 22.7479 60.1637 21.4265 59.3834 20.5456C58.6032 19.6396 57.4832 19.1865 56.0234 19.1865C54.4378 19.1865 53.1668 19.7151 52.2104 20.7722C51.254 21.8041 50.7758 23.289 50.7758 25.227V35.458H46.0567V24.5097C46.0567 22.7479 45.6666 21.4265 44.8864 20.5456C44.1061 19.6396 42.9861 19.1865 41.5264 19.1865C39.9156 19.1865 38.632 19.7025 37.6756 20.7344C36.7443 21.7663 36.2787 23.2639 36.2787 25.227V35.458H31.5596V15.298H36.0522V17.8652C36.8073 16.9591 37.7511 16.267 38.8837 15.7888C40.0162 15.3106 41.2747 15.0715 42.6589 15.0715C44.1691 15.0715 45.503 15.3609 46.6607 15.9398C47.8437 16.4935 48.7749 17.3241 49.4544 18.4315C50.285 17.3744 51.3547 16.5564 52.6634 15.9776C53.9722 15.3735 55.4194 15.0715 57.005 15.0715ZM90.5248 15.298V32.4C90.5248 39.4976 87.0389 43.0463 80.0672 43.0463C78.2299 43.0463 76.4681 42.7946 74.7819 42.2913C73.1207 41.8131 71.749 41.1083 70.6668 40.1771L72.781 36.6283C73.6367 37.3582 74.6812 37.9371 75.9144 38.365C77.1477 38.7928 78.4439 39.0068 79.803 39.0068C81.8668 39.0068 83.3769 38.5034 84.3333 37.4967C85.3149 36.5151 85.8057 34.9924 85.8057 32.9286V31.9847C85.0506 32.8153 84.132 33.4571 83.0497 33.9101C81.9675 34.338 80.7971 34.5519 79.5387 34.5519C76.8457 34.5519 74.7189 33.8095 73.1585 32.3245C71.6232 30.8396 70.8556 28.6122 70.8556 25.6423V15.298H75.5747V25.0382C75.5747 26.8252 75.9774 28.1717 76.7828 29.0778C77.6133 29.9587 78.7837 30.3991 80.2938 30.3991C81.9801 30.3991 83.314 29.8832 84.2956 28.8513C85.3023 27.8194 85.8057 26.3218 85.8057 24.3587V15.298H90.5248ZM116.637 15.298V32.4C116.637 39.4976 113.013 43.0463 105.764 43.0463C103.826 43.0463 101.989 42.7946 100.252 42.2913C98.5157 41.8131 97.0811 41.1083 95.9485 40.1771L98.0627 36.6283C98.9436 37.3582 100.051 37.9371 101.385 38.365C102.744 38.818 104.116 39.0445 105.5 39.0445C107.715 39.0445 109.338 38.5412 110.37 37.5344C111.402 36.5277 111.918 34.9924 111.918 32.9286V31.8715C111.113 32.7524 110.131 33.4194 108.973 33.8724C107.815 34.3254 106.544 34.5519 105.16 34.5519C103.247 34.5519 101.511 34.1492 99.9503 33.3439C98.415 32.5133 97.1943 31.3555 96.2883 29.8706C95.4074 28.3856 94.9669 26.6868 94.9669 24.774C94.9669 22.8612 95.4074 21.1749 96.2883 19.7151C97.1943 18.2301 98.415 17.085 99.9503 16.2796C101.511 15.4742 103.247 15.0715 105.16 15.0715C106.62 15.0715 107.941 15.3106 109.124 15.7888C110.332 16.267 111.339 16.9969 112.144 17.9785V15.298H116.637ZM105.877 30.5501C107.664 30.5501 109.124 30.0216 110.257 28.9645C111.415 27.8823 111.993 26.4854 111.993 24.774C111.993 23.0877 111.415 21.716 110.257 20.6589C109.124 19.6018 107.664 19.0733 105.877 19.0733C104.065 19.0733 102.58 19.6018 101.423 20.6589C100.29 21.716 99.7238 23.0877 99.7238 24.774C99.7238 26.4854 100.29 27.8823 101.423 28.9645C102.58 30.0216 104.065 30.5501 105.877 30.5501ZM132.506 31.7205C134.696 31.7205 136.52 30.9906 137.98 29.5308L140.472 32.4378C139.591 33.52 138.458 34.338 137.074 34.8917C135.69 35.4454 134.129 35.7223 132.393 35.7223C130.178 35.7223 128.227 35.2818 126.541 34.4009C124.855 33.52 123.546 32.2994 122.615 30.7389C121.709 29.1533 121.256 27.3663 121.256 25.378C121.256 23.4149 121.696 21.6531 122.577 20.0926C123.483 18.507 124.716 17.2737 126.277 16.3928C127.862 15.5119 129.649 15.0715 131.638 15.0715C133.525 15.0715 135.237 15.4868 136.772 16.3173C138.332 17.1227 139.566 18.2931 140.472 19.8283C141.378 21.3385 141.831 23.1128 141.831 25.1515L126.39 28.1717C126.868 29.3295 127.636 30.2104 128.693 30.8144C129.75 31.4185 131.021 31.7205 132.506 31.7205ZM131.638 18.8468C129.901 18.8468 128.492 19.4131 127.409 20.5456C126.352 21.6782 125.824 23.2009 125.824 25.1137V25.1515L137.225 22.9618C136.898 21.7286 136.231 20.7344 135.224 19.9794C134.243 19.2243 133.047 18.8468 131.638 18.8468ZM146.44 15.298H151.159V23.4904H161.315V15.298H166.034V35.458H161.315V27.4922H151.159V35.458H146.44V15.298ZM197.804 15.0715C200.346 15.0715 202.359 15.814 203.844 17.2989C205.329 18.7587 206.072 20.9609 206.072 23.9056V35.458H201.353V24.5097C201.353 22.7479 200.962 21.4265 200.182 20.5456C199.402 19.6396 198.282 19.1865 196.822 19.1865C195.237 19.1865 193.966 19.7151 193.009 20.7722C192.053 21.8041 191.575 23.289 191.575 25.227V35.458H186.855V24.5097C186.855 22.7479 186.465 21.4265 185.685 20.5456C184.905 19.6396 183.785 19.1865 182.325 19.1865C180.714 19.1865 179.431 19.7025 178.474 20.7344C177.543 21.7663 177.078 23.2639 177.078 25.227V35.458H172.358V15.298H176.851V17.8652C177.606 16.9591 178.55 16.267 179.682 15.7888C180.815 15.3106 182.073 15.0715 183.458 15.0715C184.968 15.0715 186.302 15.3609 187.46 15.9398C188.642 16.4935 189.574 17.3241 190.253 18.4315C191.084 17.3744 192.153 16.5564 193.462 15.9776C194.771 15.3735 196.218 15.0715 197.804 15.0715Z" fill="#7D2AEB"/>
<path d="M71.3764 7.09801V10.6373L80.8146 5.91823L90.2528 10.6373V7.09801L80.8146 2.37891L71.3764 7.09801Z" fill="white" stroke="white" stroke-width="1.17978"/>
</svg>
