<svg width="210" height="62" viewBox="0 0 210 62" fill="none" xmlns="http://www.w3.org/2000/svg">
<path d="M3.84589 50.7215C4.48769 50.0231 5.36072 49.6739 6.46499 49.6739C7.56926 49.6739 8.42814 50.0089 9.04162 50.679C9.65511 51.3492 9.96185 52.2883 9.96185 53.4964C9.96185 54.7328 9.65511 55.6955 9.04162 56.3844C8.42814 57.0734 7.56454 57.4179 6.45084 57.4179C5.33713 57.4179 4.46409 57.0781 3.83173 56.3986C3.19937 55.719 2.8832 54.7752 2.8832 53.5671C2.8832 52.3685 3.20409 51.4199 3.84589 50.7215ZM8.10724 51.4577C7.7014 50.9386 7.14454 50.679 6.43668 50.679C5.72881 50.679 5.16724 50.9386 4.75196 51.4577C4.33668 51.9768 4.12904 52.6705 4.12904 53.5388C4.12904 54.4355 4.33196 55.1386 4.7378 55.6483C5.15308 56.1485 5.72881 56.3986 6.46499 56.3986C7.17286 56.3986 7.72499 56.1438 8.1214 55.6341C8.52724 55.1244 8.73016 54.4213 8.73016 53.5247C8.73016 52.6564 8.52252 51.9674 8.10724 51.4577ZM12.9238 48.8669C13.2447 48.3667 13.6317 47.9986 14.0847 47.7626C14.5378 47.5172 15.1135 47.371 15.8119 47.3238C16.5953 47.2671 17.0719 47.1916 17.2418 47.0972C17.3551 47.0406 17.44 46.9651 17.4966 46.8707H18.7C18.6717 47.0217 18.6292 47.1586 18.5726 47.2813C18.5254 47.404 18.4688 47.5125 18.4027 47.6069C18.3461 47.6919 18.2611 47.7721 18.1479 47.8476C18.044 47.9231 17.9544 47.9892 17.8789 48.0458C17.8034 48.093 17.6901 48.1402 17.5391 48.1874C17.3975 48.2251 17.2843 48.2581 17.1993 48.2865C17.1144 48.3053 16.9822 48.3242 16.8029 48.3431C16.633 48.362 16.5103 48.3761 16.4348 48.3856C16.3593 48.395 16.2225 48.4044 16.0243 48.4139C15.8261 48.4233 15.6987 48.4328 15.642 48.4422C14.8681 48.4988 14.264 48.8008 13.8299 49.3483C13.3957 49.8862 13.122 50.6083 13.0088 51.5143H13.0512C13.2589 51.0141 13.5892 50.613 14.0422 50.311C14.4953 50.0089 15.0191 49.8579 15.6137 49.8579C16.6519 49.8579 17.4636 50.1883 18.0488 50.8489C18.6434 51.5002 18.9407 52.4157 18.9407 53.5955C18.9407 54.813 18.6387 55.7568 18.0346 56.4269C17.44 57.097 16.6 57.4321 15.5146 57.4321C14.6274 57.4321 13.8771 57.1725 13.2636 56.6534C12.6501 56.1249 12.2726 55.3698 12.131 54.3883C12.0744 53.9919 12.0461 53.5483 12.0461 53.0575C12.0461 51.1604 12.3387 49.7635 12.9238 48.8669ZM13.2778 53.6379C13.2778 54.4685 13.476 55.1386 13.8724 55.6483C14.2782 56.1579 14.8303 56.4128 15.5288 56.4128C16.2083 56.4128 16.7416 56.1674 17.1285 55.6766C17.5155 55.1858 17.709 54.5015 17.709 53.6238C17.709 52.7649 17.5108 52.0901 17.1144 51.5993C16.718 51.1085 16.18 50.8631 15.5004 50.8631C14.8209 50.8631 14.2782 51.1132 13.8724 51.6134C13.476 52.1042 13.2778 52.779 13.2778 53.6379ZM22.3557 49.8862V50.9197C22.8842 50.0797 23.7053 49.6597 24.8191 49.6597C25.8384 49.6597 26.6453 50.0042 27.2399 50.6932C27.844 51.3822 28.146 52.3166 28.146 53.4964C28.146 54.6761 27.8487 55.6199 27.2541 56.3278C26.6689 57.0262 25.8761 57.3755 24.8757 57.3755C23.828 57.3755 23.0116 56.9743 22.4265 56.1721V60.0087H21.2231V49.8862H22.3557ZM24.635 50.6649C23.9366 50.6649 23.3844 50.9197 22.9786 51.4294C22.5822 51.9296 22.384 52.6233 22.384 53.5105C22.384 54.3977 22.5869 55.0961 22.9928 55.6058C23.408 56.106 23.9696 56.3561 24.6775 56.3561C25.3665 56.3561 25.9092 56.1013 26.3056 55.5916C26.702 55.082 26.9002 54.3883 26.9002 53.5105C26.9002 52.6233 26.6973 51.9296 26.2914 51.4294C25.895 50.9197 25.3429 50.6649 24.635 50.6649ZM36.9345 56.2287V57.1631C36.6891 57.2575 36.4154 57.3047 36.1134 57.3047C35.4244 57.3047 35.0705 56.946 35.0516 56.2287C34.3626 57.0026 33.4801 57.3896 32.4042 57.3896C31.6869 57.3896 31.1158 57.2056 30.6911 56.8375C30.2758 56.4694 30.0682 55.9644 30.0682 55.3226C30.0682 54.0202 30.9318 53.2604 32.659 53.0433C32.7722 53.0244 32.9374 53.0056 33.1545 52.9867C33.9756 52.8923 34.4806 52.7838 34.6693 52.6611C34.8864 52.5101 34.9949 52.2505 34.9949 51.8824C34.9949 51.0802 34.4428 50.679 33.3385 50.679C32.7722 50.679 32.3428 50.797 32.0502 51.033C31.7576 51.2595 31.583 51.637 31.5264 52.1656H30.3513C30.3702 51.3822 30.6487 50.7734 31.1866 50.3393C31.7246 49.9051 32.4655 49.688 33.4093 49.688C34.4381 49.688 35.2026 49.924 35.7028 50.3959C35.8633 50.5469 35.9812 50.7451 36.0567 50.9905C36.1322 51.2359 36.1747 51.4388 36.1842 51.5993C36.1936 51.7503 36.1983 51.9815 36.1983 52.293C36.1983 52.6516 36.1889 53.1943 36.17 53.9211C36.1511 54.6478 36.1417 55.1905 36.1417 55.5492C36.1417 55.8134 36.1747 56.0022 36.2408 56.1155C36.3163 56.2193 36.4484 56.2712 36.6372 56.2712C36.7127 56.2712 36.8118 56.257 36.9345 56.2287ZM34.9949 53.3972C34.91 53.4633 34.8203 53.5199 34.726 53.5671C34.6316 53.6143 34.5089 53.6521 34.3579 53.6804C34.2163 53.7087 34.1172 53.7323 34.0606 53.7512C34.0134 53.7606 33.8907 53.7795 33.6925 53.8078C33.4943 53.8267 33.3905 53.8361 33.381 53.8361C33.0884 53.8739 32.8949 53.9022 32.8006 53.9211C32.7156 53.9305 32.5457 53.9683 32.2909 54.0343C32.0455 54.1004 31.8709 54.1759 31.7671 54.2608C31.6633 54.3458 31.5594 54.4732 31.4556 54.6431C31.3612 54.8035 31.314 54.997 31.314 55.2235C31.314 55.6011 31.4415 55.8984 31.6963 56.1155C31.9606 56.3325 32.3192 56.4411 32.7722 56.4411C33.348 56.4411 33.8624 56.2712 34.3154 55.9314C34.7684 55.5916 34.9949 55.1905 34.9949 54.728V53.3972ZM38.5075 51.9957C38.5641 51.1651 38.8803 50.5705 39.456 50.2119C40.0318 49.8532 40.7444 49.6739 41.5938 49.6739C42.396 49.6739 43.052 49.839 43.5617 50.1694C44.0808 50.4997 44.3403 50.9905 44.3403 51.6417C44.3403 52.0381 44.2223 52.3779 43.9864 52.6611C43.7599 52.9442 43.4862 53.1188 43.1653 53.1849V53.2132C43.5522 53.2887 43.8826 53.4822 44.1563 53.7937C44.4394 54.0957 44.581 54.5062 44.581 55.0253C44.581 55.7804 44.2837 56.3703 43.6891 56.795C43.0945 57.2103 42.3819 57.4179 41.5513 57.4179C40.5981 57.4179 39.8383 57.2008 39.272 56.7667C38.7151 56.3231 38.4178 55.7049 38.3801 54.9121H39.5976C39.6354 55.4217 39.8289 55.804 40.1781 56.0588C40.5273 56.3137 40.9803 56.4411 41.5372 56.4411C42.094 56.4411 42.5329 56.3089 42.8538 56.0447C43.1747 55.771 43.3351 55.4406 43.3351 55.0537C43.3351 54.2608 42.816 53.8644 41.7778 53.8644H40.7727V52.8876H41.5796C42.0421 52.8876 42.4149 52.7932 42.6981 52.6044C42.9812 52.4062 43.1228 52.1042 43.1228 51.6984C43.1228 51.4152 42.9812 51.1698 42.6981 50.9622C42.4244 50.7546 42.0515 50.6507 41.5796 50.6507C41.0983 50.6507 40.6783 50.7593 40.3196 50.9764C39.9704 51.1934 39.7722 51.5332 39.725 51.9957H38.5075ZM47.4266 50.7215C48.0684 50.0231 48.9414 49.6739 50.0457 49.6739C51.15 49.6739 52.0089 50.0089 52.6223 50.679C53.2358 51.3492 53.5426 52.2883 53.5426 53.4964C53.5426 54.7328 53.2358 55.6955 52.6223 56.3844C52.0089 57.0734 51.1453 57.4179 50.0315 57.4179C48.9178 57.4179 48.0448 57.0781 47.4124 56.3986C46.7801 55.719 46.4639 54.7752 46.4639 53.5671C46.4639 52.3685 46.7848 51.4199 47.4266 50.7215ZM51.688 51.4577C51.2821 50.9386 50.7253 50.679 50.0174 50.679C49.3095 50.679 48.748 50.9386 48.3327 51.4577C47.9174 51.9768 47.7097 52.6705 47.7097 53.5388C47.7097 54.4355 47.9127 55.1386 48.3185 55.6483C48.7338 56.1485 49.3095 56.3986 50.0457 56.3986C50.7536 56.3986 51.3057 56.1438 51.7021 55.6341C52.108 55.1244 52.3109 54.4213 52.3109 53.5247C52.3109 52.6564 52.1032 51.9674 51.688 51.4577ZM55.7967 57.1914V49.8862H59.1803C59.6616 49.8862 60.0722 49.9287 60.4119 50.0137C60.7517 50.0892 61.049 50.2638 61.3039 50.5375C61.5587 50.8112 61.6861 51.184 61.6861 51.6559C61.6861 52.3732 61.3275 52.897 60.6102 53.2274V53.2415C61.0443 53.3265 61.3841 53.5294 61.6295 53.8503C61.8749 54.1617 61.9976 54.5581 61.9976 55.0395C61.9976 55.6624 61.7899 56.1768 61.3746 56.5826C60.9594 56.9885 60.4261 57.1914 59.7749 57.1914H55.7967ZM59.0528 52.831C59.5531 52.831 59.907 52.7507 60.1146 52.5903C60.3317 52.4204 60.4403 52.175 60.4403 51.8541C60.4403 51.5332 60.3364 51.2972 60.1288 51.1462C59.9212 50.9952 59.5625 50.9197 59.0528 50.9197H56.9717V52.831H59.0528ZM56.9717 53.8503V56.1579H59.5484C59.9259 56.1579 60.2185 56.0447 60.4261 55.8181C60.6432 55.5916 60.7517 55.299 60.7517 54.9404C60.7517 54.2137 60.2798 53.8503 59.336 53.8503H56.9717ZM70.7483 56.2287V57.1631C70.5029 57.2575 70.2292 57.3047 69.9272 57.3047C69.2382 57.3047 68.8843 56.946 68.8654 56.2287C68.1764 57.0026 67.2939 57.3896 66.218 57.3896C65.5007 57.3896 64.9297 57.2056 64.505 56.8375C64.0897 56.4694 63.882 55.9644 63.882 55.3226C63.882 54.0202 64.7456 53.2604 66.4728 53.0433C66.5861 53.0244 66.7512 53.0056 66.9683 52.9867C67.7895 52.8923 68.2944 52.7838 68.4832 52.6611C68.7002 52.5101 68.8088 52.2505 68.8088 51.8824C68.8088 51.0802 68.2566 50.679 67.1524 50.679C66.5861 50.679 66.1566 50.797 65.8641 51.033C65.5715 51.2595 65.3969 51.637 65.3402 52.1656H64.1652C64.1841 51.3822 64.4625 50.7734 65.0005 50.3393C65.5384 49.9051 66.2793 49.688 67.2232 49.688C68.2519 49.688 69.0164 49.924 69.5166 50.3959C69.6771 50.5469 69.7951 50.7451 69.8706 50.9905C69.9461 51.2359 69.9886 51.4388 69.998 51.5993C70.0074 51.7503 70.0121 51.9815 70.0121 52.293C70.0121 52.6516 70.0027 53.1943 69.9838 53.9211C69.965 54.6478 69.9555 55.1905 69.9555 55.5492C69.9555 55.8134 69.9886 56.0022 70.0546 56.1155C70.1301 56.2193 70.2623 56.2712 70.451 56.2712C70.5265 56.2712 70.6256 56.257 70.7483 56.2287ZM68.8088 53.3972C68.7238 53.4633 68.6342 53.5199 68.5398 53.5671C68.4454 53.6143 68.3227 53.6521 68.1717 53.6804C68.0301 53.7087 67.931 53.7323 67.8744 53.7512C67.8272 53.7606 67.7045 53.7795 67.5063 53.8078C67.3081 53.8267 67.2043 53.8361 67.1948 53.8361C66.9023 53.8739 66.7088 53.9022 66.6144 53.9211C66.5295 53.9305 66.3596 53.9683 66.1047 54.0343C65.8593 54.1004 65.6847 54.1759 65.5809 54.2608C65.4771 54.3458 65.3733 54.4732 65.2695 54.6431C65.1751 54.8035 65.1279 54.997 65.1279 55.2235C65.1279 55.6011 65.2553 55.8984 65.5101 56.1155C65.7744 56.3325 66.133 56.4411 66.5861 56.4411C67.1618 56.4411 67.6762 56.2712 68.1292 55.9314C68.5823 55.5916 68.8088 55.1905 68.8088 54.728V53.3972ZM78.324 50.948H75.7049V57.1914H74.5016V50.948H71.8825V49.8862H78.324V50.948ZM86.1291 54.8838C85.761 56.5826 84.6992 57.4321 82.9437 57.4321C81.8678 57.4321 81.0231 57.097 80.4096 56.4269C79.8055 55.7568 79.5035 54.8271 79.5035 53.6379C79.5035 52.4581 79.815 51.5049 80.4379 50.7781C81.0703 50.042 81.8914 49.6739 82.9013 49.6739C84.0244 49.6739 84.855 50.0561 85.3929 50.8206C85.9404 51.5757 86.2141 52.5337 86.2141 53.6946V53.8644H80.721L80.7069 53.9494C80.7069 54.7233 80.9098 55.3321 81.3156 55.7757C81.7215 56.2193 82.2783 56.4411 82.9862 56.4411C83.5147 56.4411 83.93 56.3184 84.2321 56.073C84.5435 55.8276 84.7842 55.4312 84.9541 54.8838H86.1291ZM84.9682 52.8876C84.9116 52.1892 84.6992 51.6465 84.3312 51.2595C83.9631 50.8631 83.477 50.6649 82.8729 50.6649C82.2878 50.6649 81.8017 50.8631 81.4147 51.2595C81.0278 51.6559 80.7965 52.1986 80.721 52.8876H84.9682ZM94.178 49.8862V57.1914H92.9746V50.948H90.3697L90.2706 54.1759C90.2423 55.2896 90.0394 56.0966 89.6618 56.5968C89.2843 57.097 88.8124 57.3471 88.2461 57.3471C87.8969 57.3471 87.609 57.2952 87.3825 57.1914V56.2146C87.5052 56.2806 87.7176 56.3137 88.0196 56.3137C88.3027 56.3137 88.5434 56.1626 88.7416 55.8606C88.9492 55.5492 89.0625 55.0301 89.0814 54.3033L89.2088 49.8862H94.178ZM102.3 53.284C102.734 53.6804 102.951 54.2231 102.951 54.9121C102.951 55.6011 102.738 56.1532 102.314 56.5685C101.898 56.9838 101.337 57.1914 100.629 57.1914H96.764V49.8862H97.9674V52.6752H100.572C101.29 52.6752 101.865 52.8781 102.3 53.284ZM100.19 53.7087H97.9674V56.1296H100.19C100.681 56.1296 101.054 56.0258 101.309 55.8181C101.573 55.6011 101.705 55.299 101.705 54.9121C101.705 54.1098 101.2 53.7087 100.19 53.7087ZM106.201 57.1914H104.997V49.8862H106.201V52.7885H109.853V49.8862H111.057V57.1914H109.853V53.8503H106.201V57.1914ZM120.679 49.8862H121.882V57.1914H120.679V49.8862ZM118.867 53.284C119.301 53.6804 119.518 54.2231 119.518 54.9121C119.518 55.6011 119.306 56.1532 118.881 56.5685C118.466 56.9838 117.904 57.1914 117.196 57.1914H113.671V49.8862H114.874V52.6752H117.139C117.857 52.6752 118.433 52.8781 118.867 53.284ZM116.757 53.7087H114.874V56.1296H116.757C117.248 56.1296 117.621 56.0258 117.876 55.8181C118.14 55.6011 118.272 55.299 118.272 54.9121C118.272 54.1098 117.767 53.7087 116.757 53.7087ZM129.698 47.1114C129.604 47.706 129.373 48.1826 129.005 48.5413C128.646 48.8905 128.169 49.0651 127.575 49.0651C126.999 49.0651 126.513 48.8858 126.117 48.5271C125.73 48.159 125.498 47.6871 125.423 47.1114H126.145C126.362 47.8476 126.834 48.2157 127.561 48.2157C128.259 48.2157 128.731 47.8476 128.976 47.1114H129.698ZM126.074 57.1914H124.531V49.8862H125.734V55.8465H125.763L129.047 49.8862H130.59V57.1914H129.387V51.2312H129.359L126.074 57.1914ZM143.841 59.5132V57.1914H138.037V49.8862H139.24V56.1296H142.836V49.8862H144.04V56.1296H144.988V59.5132H143.841ZM153.204 54.8838C152.836 56.5826 151.774 57.4321 150.018 57.4321C148.942 57.4321 148.098 57.097 147.484 56.4269C146.88 55.7568 146.578 54.8271 146.578 53.6379C146.578 52.4581 146.89 51.5049 147.513 50.7781C148.145 50.042 148.966 49.6739 149.976 49.6739C151.099 49.6739 151.93 50.0561 152.468 50.8206C153.015 51.5757 153.289 52.5337 153.289 53.6946V53.8644H147.796L147.782 53.9494C147.782 54.7233 147.984 55.3321 148.39 55.7757C148.796 56.2193 149.353 56.4411 150.061 56.4411C150.589 56.4411 151.005 56.3184 151.307 56.073C151.618 55.8276 151.859 55.4312 152.029 54.8838H153.204ZM152.043 52.8876C151.986 52.1892 151.774 51.6465 151.406 51.2595C151.038 50.8631 150.552 50.6649 149.948 50.6649C149.362 50.6649 148.876 50.8631 148.489 51.2595C148.102 51.6559 147.871 52.1986 147.796 52.8876H152.043ZM156.617 57.1914H155.414V49.8862H156.617V52.7885H160.27V49.8862H161.473V57.1914H160.27V53.8503H156.617V57.1914ZM169.722 50.948H167.103V57.1914H165.9V50.948H163.281V49.8862H169.722V50.948ZM172.665 49.8862V50.9197C173.194 50.0797 174.015 49.6597 175.129 49.6597C176.148 49.6597 176.955 50.0042 177.55 50.6932C178.154 51.3822 178.456 52.3166 178.456 53.4964C178.456 54.6761 178.158 55.6199 177.564 56.3278C176.979 57.0262 176.186 57.3755 175.185 57.3755C174.138 57.3755 173.321 56.9743 172.736 56.1721V60.0087H171.533V49.8862H172.665ZM174.945 50.6649C174.246 50.6649 173.694 50.9197 173.288 51.4294C172.892 51.9296 172.694 52.6233 172.694 53.5105C172.694 54.3977 172.897 55.0961 173.302 55.6058C173.718 56.106 174.279 56.3561 174.987 56.3561C175.676 56.3561 176.219 56.1013 176.615 55.5916C177.012 55.082 177.21 54.3883 177.21 53.5105C177.21 52.6233 177.007 51.9296 176.601 51.4294C176.205 50.9197 175.653 50.6649 174.945 50.6649ZM198.051 53.3123C198.051 53.9447 197.867 54.4402 197.499 54.7988C197.14 55.148 196.64 55.3226 195.998 55.3226C195.347 55.3226 194.832 55.1433 194.455 54.7847C194.077 54.4166 193.888 53.9211 193.888 53.2981C193.888 52.6752 194.072 52.175 194.441 51.7975C194.818 51.4199 195.314 51.2312 195.927 51.2312C196.588 51.2312 197.107 51.4152 197.484 51.7833C197.862 52.1514 198.051 52.6611 198.051 53.3123ZM198.022 57.1914H194.058V56.2995H198.022V57.1914ZM193.011 57.1914H191.538L187.05 49.3341H187.022V57.1914H185.748V47.3379H187.178L191.708 55.2802H191.737V47.3379H193.011V57.1914ZM197.017 53.2698C197.017 52.8546 196.923 52.5431 196.734 52.3355C196.555 52.1184 196.309 52.0098 195.998 52.0098C195.658 52.0098 195.394 52.1184 195.205 52.3355C195.016 52.5431 194.922 52.8593 194.922 53.284C194.922 54.124 195.276 54.544 195.984 54.544C196.673 54.544 197.017 54.1193 197.017 53.2698ZM204.733 47.168V57.1914H203.416V49.9287H200.896V49.0226C201.708 49.0226 202.35 48.8905 202.822 48.6262C203.303 48.362 203.624 47.8759 203.784 47.168H204.733Z" fill="white"/>
<path d="M17.0359 35.816C14.368 35.816 11.9518 35.2371 9.78733 34.0794C7.648 32.8965 5.96171 31.2731 4.72845 29.2093C3.52036 27.1454 2.91632 24.8174 2.91632 22.225C2.91632 19.6326 3.53295 17.3045 4.7662 15.2407C5.99946 13.1769 7.68576 11.5661 9.82508 10.4084C11.9896 9.22544 14.4058 8.63398 17.0736 8.63398C19.2381 8.63398 21.2138 9.01151 23.0008 9.76657C24.7878 10.5216 26.2979 11.6165 27.5311 13.0511L24.3599 16.0335C22.4471 13.9697 20.0938 12.9378 17.3001 12.9378C15.488 12.9378 13.8646 13.3405 12.43 14.1459C10.9954 14.9261 9.87542 16.0209 9.07002 17.4304C8.26463 18.8398 7.86193 20.438 7.86193 22.225C7.86193 24.012 8.26463 25.6102 9.07002 27.0196C9.87542 28.429 10.9954 29.5365 12.43 30.3418C13.8646 31.1221 15.488 31.5122 17.3001 31.5122C20.0938 31.5122 22.4471 30.4677 24.3599 28.3787L27.5311 31.3989C26.2979 32.8335 24.7752 33.9284 22.9631 34.6834C21.1761 35.4385 19.2004 35.816 17.0359 35.816ZM57.0049 15.052C59.5469 15.052 61.5604 15.7944 63.0453 17.2794C64.5303 18.7392 65.2727 20.9414 65.2727 23.8861V35.4385H60.5536V24.4902C60.5536 22.7284 60.1635 21.407 59.3833 20.5261C58.6031 19.62 57.4831 19.167 56.0233 19.167C54.4377 19.167 53.1667 19.6956 52.2103 20.7526C51.2539 21.7845 50.7757 23.2695 50.7757 25.2075V35.4385H46.0566V24.4902C46.0566 22.7284 45.6665 21.407 44.8862 20.5261C44.106 19.62 42.986 19.167 41.5262 19.167C39.9154 19.167 38.6318 19.683 37.6754 20.7149C36.7442 21.7468 36.2786 23.2443 36.2786 25.2075V35.4385H31.5595V15.2785H36.0521V17.8457C36.8071 16.9396 37.751 16.2475 38.8835 15.7693C40.0161 15.2911 41.2745 15.052 42.6588 15.052C44.1689 15.052 45.5029 15.3414 46.6606 15.9203C47.8435 16.474 48.7748 17.3045 49.4543 18.412C50.2849 17.3549 51.3545 16.5369 52.6633 15.958C53.9721 15.354 55.4193 15.052 57.0049 15.052ZM90.5247 15.2785V32.3805C90.5247 39.478 87.0388 43.0268 80.0671 43.0268C78.2298 43.0268 76.468 42.7751 74.7817 42.2717C73.1206 41.7935 71.7489 41.0888 70.6667 40.1576L72.7808 36.6088C73.6366 37.3387 74.6811 37.9176 75.9143 38.3454C77.1476 38.7733 78.4438 38.9872 79.8029 38.9872C81.8667 38.9872 83.3768 38.4839 84.3332 37.4771C85.3148 36.4956 85.8056 34.9729 85.8056 32.909V31.9652C85.0505 32.7958 84.1318 33.4376 83.0496 33.8906C81.9674 34.3185 80.797 34.5324 79.5386 34.5324C76.8456 34.5324 74.7188 33.7899 73.1584 32.305C71.6231 30.82 70.8554 28.5926 70.8554 25.6227V15.2785H75.5745V25.0187C75.5745 26.8057 75.9772 28.1522 76.7826 29.0583C77.6132 29.9392 78.7835 30.3796 80.2936 30.3796C81.9799 30.3796 83.3139 29.8636 84.2954 28.8317C85.3022 27.7998 85.8056 26.3023 85.8056 24.3392V15.2785H90.5247ZM116.637 15.2785V32.3805C116.637 39.478 113.013 43.0268 105.764 43.0268C103.826 43.0268 101.989 42.7751 100.252 42.2717C98.5156 41.7935 97.081 41.0888 95.9484 40.1576L98.0625 36.6088C98.9434 37.3387 100.051 37.9176 101.385 38.3454C102.744 38.7985 104.116 39.025 105.5 39.025C107.715 39.025 109.338 38.5216 110.37 37.5149C111.402 36.5081 111.918 34.9729 111.918 32.909V31.852C111.112 32.7329 110.131 33.3998 108.973 33.8529C107.815 34.3059 106.544 34.5324 105.16 34.5324C103.247 34.5324 101.511 34.1297 99.9502 33.3243C98.4149 32.4938 97.1942 31.336 96.2882 29.8511C95.4073 28.3661 94.9668 26.6672 94.9668 24.7544C94.9668 22.8416 95.4073 21.1553 96.2882 19.6956C97.1942 18.2106 98.4149 17.0654 99.9502 16.26C101.511 15.4547 103.247 15.052 105.16 15.052C106.62 15.052 107.941 15.2911 109.124 15.7693C110.332 16.2475 111.339 16.9774 112.144 17.9589V15.2785H116.637ZM105.877 30.5306C107.664 30.5306 109.124 30.0021 110.257 28.945C111.414 27.8627 111.993 26.4659 111.993 24.7544C111.993 23.0681 111.414 21.6965 110.257 20.6394C109.124 19.5823 107.664 19.0538 105.877 19.0538C104.065 19.0538 102.58 19.5823 101.423 20.6394C100.29 21.6965 99.7237 23.0681 99.7237 24.7544C99.7237 26.4659 100.29 27.8627 101.423 28.945C102.58 30.0021 104.065 30.5306 105.877 30.5306ZM132.506 31.7009C134.695 31.7009 136.52 30.9711 137.98 29.5113L140.472 32.4183C139.591 33.5005 138.458 34.3185 137.074 34.8722C135.69 35.4259 134.129 35.7027 132.393 35.7027C130.178 35.7027 128.227 35.2623 126.541 34.3814C124.855 33.5005 123.546 32.2798 122.615 30.7194C121.708 29.1338 121.255 27.3468 121.255 25.3585C121.255 23.3953 121.696 21.6335 122.577 20.0731C123.483 18.4875 124.716 17.2542 126.277 16.3733C127.862 15.4924 129.649 15.052 131.637 15.052C133.525 15.052 135.237 15.4672 136.772 16.2978C138.332 17.1032 139.566 18.2735 140.472 19.8088C141.378 21.3189 141.831 23.0933 141.831 25.132L126.39 28.1522C126.868 29.3099 127.636 30.1908 128.693 30.7949C129.75 31.3989 131.021 31.7009 132.506 31.7009ZM131.637 18.8272C129.901 18.8272 128.491 19.3935 127.409 20.5261C126.352 21.6587 125.824 23.1814 125.824 25.0942V25.132L137.225 22.9423C136.898 21.709 136.231 20.7149 135.224 19.9598C134.242 19.2048 133.047 18.8272 131.637 18.8272ZM146.44 15.2785H151.159V23.4708H161.315V15.2785H166.034V35.4385H161.315V27.4726H151.159V35.4385H146.44V15.2785ZM197.804 15.052C200.346 15.052 202.359 15.7944 203.844 17.2794C205.329 18.7392 206.072 20.9414 206.072 23.8861V35.4385H201.352V24.4902C201.352 22.7284 200.962 21.407 200.182 20.5261C199.402 19.62 198.282 19.167 196.822 19.167C195.236 19.167 193.965 19.6956 193.009 20.7526C192.053 21.7845 191.574 23.2695 191.574 25.2075V35.4385H186.855V24.4902C186.855 22.7284 186.465 21.407 185.685 20.5261C184.905 19.62 183.785 19.167 182.325 19.167C180.714 19.167 179.431 19.683 178.474 20.7149C177.543 21.7468 177.077 23.2443 177.077 25.2075V35.4385H172.358V15.2785H176.851V17.8457C177.606 16.9396 178.55 16.2475 179.682 15.7693C180.815 15.2911 182.073 15.052 183.458 15.052C184.968 15.052 186.302 15.3414 187.459 15.9203C188.642 16.474 189.574 17.3045 190.253 18.412C191.084 17.3549 192.153 16.5369 193.462 15.958C194.771 15.354 196.218 15.052 197.804 15.052Z" fill="white"/>
<path d="M71.376 7.07848V10.6178L80.8142 5.8987L90.2524 10.6178V7.07848L80.8142 2.35938L71.376 7.07848Z" fill="#FFD300" stroke="#FFD300" stroke-width="1.17978"/>
</svg>
