<svg width="19" height="19" viewBox="0 0 19 19" fill="none" xmlns="http://www.w3.org/2000/svg">
<path d="M9.14208 0.984294C9.45541 0.233914 10.4723 0.233914 10.7857 0.984294L12.688 5.54148C12.8182 5.85312 13.0991 6.06672 13.4226 6.09982L18.1532 6.58392C18.9322 6.66365 19.2466 7.67658 18.661 8.22019L15.1067 11.5195C14.8634 11.7453 14.756 12.0911 14.8259 12.4235L15.8475 17.2784C16.0157 18.0783 15.1929 18.7043 14.518 18.2898L10.4176 15.7724C10.1375 15.6005 9.79026 15.6005 9.51011 15.7724L5.40978 18.2898C4.73479 18.7043 3.91202 18.0783 4.08025 17.2784L5.10183 12.4235C5.17178 12.0911 5.06434 11.7453 4.82105 11.5195L1.26676 8.22019C0.681174 7.67658 0.995488 6.66365 1.7745 6.58392L6.50516 6.09982C6.82862 6.06671 7.10958 5.85312 7.2397 5.54148L9.14208 0.984294Z" fill="#FFD300"/>
</svg>
